<?xml version="1.0" standalone="no"?>
<!DOCTYPE svg PUBLIC "-//W3C//DTD SVG 20010904//EN"
 "http://www.w3.org/TR/2001/REC-SVG-20010904/DTD/svg10.dtd">
<svg version="1.0" xmlns="http://www.w3.org/2000/svg"
 width="3072.000000pt" height="3072.000000pt" viewBox="0 0 3072.000000 3072.000000"
 preserveAspectRatio="xMidYMid meet">
<metadata>
Created by potrace 1.14, written by Peter Selinger 2001-2017
</metadata>
<g transform="translate(0.000000,3072.000000) scale(0.100000,-0.100000)"
fill="#000000" stroke="none">
<path d="M21320 26354 c-602 -31 -1112 -127 -1640 -309 -261 -90 -433 -163
-687 -292 -240 -122 -551 -317 -733 -460 -398 -312 -719 -653 -980 -1043 -236
-352 -430 -785 -539 -1200 -92 -351 -131 -661 -131 -1035 0 -310 25 -567 81
-843 69 -337 150 -590 320 -992 24 -56 148 -303 188 -375 13 -22 37 -65 54
-95 291 -517 814 -1123 1327 -1537 215 -173 541 -403 708 -499 17 -10 32 -21
32 -24 -1 -3 -99 -53 -218 -112 -119 -58 -298 -150 -397 -203 l-180 -97 -125
26 c-339 69 -700 80 -1180 35 -154 -14 -599 -75 -687 -93 -39 -9 -102 -20
-139 -26 -159 -25 -422 -100 -601 -171 -403 -160 -744 -456 -937 -815 l-27
-51 -117 29 c-336 81 -518 123 -797 184 -316 68 -960 194 -995 194 -15 0 -12
13 27 107 155 373 267 751 353 1186 22 113 70 463 81 592 15 180 15 757 0 944
-12 149 -60 493 -87 616 -71 330 -102 447 -178 677 -207 626 -535 1231 -940
1738 -239 298 -592 653 -861 865 -21 17 -52 41 -69 55 -37 30 -142 110 -172
130 -496 339 -772 491 -1229 677 -337 138 -731 254 -1116 329 -1040 202 -2139
125 -3174 -222 -804 -269 -1588 -723 -2215 -1282 -100 -89 -416 -404 -514
-512 -79 -86 -312 -378 -402 -501 -303 -416 -591 -954 -771 -1439 -157 -422
-267 -848 -318 -1225 -38 -287 -44 -354 -56 -594 -14 -290 -2 -624 32 -886 10
-82 24 -186 29 -230 13 -100 72 -384 112 -535 90 -343 174 -581 332 -935 l35
-80 -27 -12 c-15 -6 -103 -42 -197 -79 -431 -169 -795 -355 -1150 -589 -98
-65 -315 -227 -392 -294 l-53 -45 0 -332 c0 -374 -8 -337 80 -348 25 -4 124
-17 220 -31 96 -14 211 -30 255 -36 44 -5 107 -14 140 -19 33 -5 161 -23 285
-40 124 -16 272 -37 330 -45 168 -24 419 -56 491 -62 107 -9 177 26 222 111
17 33 22 58 22 126 0 101 -24 159 -93 227 -62 61 -97 70 -472 118 -69 9 -170
22 -225 30 -55 8 -154 21 -220 30 -314 43 -656 93 -661 98 -6 6 93 84 216 169
295 204 671 402 1062 559 131 52 335 129 344 129 2 0 29 -44 61 -97 364 -620
868 -1185 1443 -1619 835 -629 1813 -1019 2880 -1148 350 -42 851 -54 1175
-28 762 62 1460 239 2130 539 102 46 398 192 470 233 572 320 991 636 1440
1085 451 451 775 881 1065 1415 41 74 74 136 76 138 2 4 493 -88 709 -133 94
-20 202 -42 240 -50 177 -35 991 -228 1001 -237 10 -10 -29 -135 -53 -170 -46
-67 -54 -117 -60 -363 -8 -334 17 -539 94 -765 139 -412 375 -655 788 -810
179 -68 352 -109 715 -171 512 -87 1025 -94 1495 -19 65 10 121 18 123 16 1
-2 27 -60 57 -129 216 -499 318 -1072 286 -1601 -17 -274 -62 -554 -121 -761
-11 -38 -20 -80 -20 -92 0 -25 -16 -31 -276 -93 -1111 -267 -2130 -417 -3284
-482 -296 -17 -1277 -17 -1610 0 -522 26 -1038 66 -1540 118 -442 45 -1203
135 -1345 159 -49 8 -146 24 -213 35 -204 33 -338 42 -438 30 -97 -12 -240
-44 -373 -84 -47 -15 -96 -26 -110 -26 -34 0 -121 -41 -169 -79 -57 -46 -209
-129 -475 -260 -231 -113 -400 -214 -497 -296 -234 -199 -399 -458 -479 -754
-49 -179 -64 -296 -64 -511 -1 -322 47 -570 170 -890 309 -803 1107 -1667
2088 -2258 1007 -607 2152 -959 3625 -1116 1190 -127 3109 -152 4207 -56 306
27 596 58 798 86 2126 294 3843 984 5461 2195 336 252 573 445 904 738 170
152 666 624 672 641 2 4 66 73 143 152 198 203 501 546 755 853 41 50 93 113
116 140 124 150 429 543 554 715 675 927 1111 1731 1385 2555 166 496 242 900
215 1131 -43 356 -228 608 -575 784 -424 215 -915 257 -1477 125 -118 -27
-374 -114 -535 -181 -173 -72 -514 -242 -728 -362 -77 -43 -270 -152 -430
-242 -1526 -859 -2609 -1409 -3545 -1802 -91 -38 -179 -75 -195 -83 -58 -27
-512 -203 -720 -280 -242 -89 -903 -311 -1145 -384 -235 -70 -450 -131 -465
-131 -10 0 -9 16 5 73 10 39 30 142 44 227 118 720 36 1468 -235 2134 -45 111
-56 146 -45 146 23 0 313 81 436 122 431 143 718 324 1051 665 153 157 238
261 344 418 137 204 231 407 281 606 25 102 28 131 28 274 0 133 -4 174 -22
240 -27 99 -89 229 -146 309 -152 212 -616 561 -1035 778 -56 30 -103 58 -103
64 -1 10 386 207 595 303 l138 64 147 -71 c579 -278 1242 -480 1891 -578 803
-121 1664 -83 2416 107 886 224 1678 652 2266 1225 l97 94 183 -50 c507 -135
1032 -327 1476 -540 78 -38 151 -71 162 -75 12 -3 21 -10 21 -16 0 -5 -47 -31
-104 -58 -157 -76 -195 -130 -183 -260 6 -67 24 -106 74 -162 57 -63 124 -93
208 -94 68 0 76 3 305 108 129 60 249 115 266 122 31 14 34 13 163 -69 229
-146 516 -352 716 -515 118 -96 354 -303 400 -350 l39 -41 -32 0 c-18 0 -96
-9 -175 -19 -143 -20 -269 -34 -602 -71 -199 -22 -260 -42 -311 -103 -93 -110
-98 -290 -11 -384 63 -68 112 -78 284 -59 76 9 239 27 363 41 321 37 801 96
893 111 l37 6 0 282 0 282 -137 135 c-76 74 -176 168 -223 209 -47 41 -90 79
-96 84 -129 121 -577 462 -811 616 -29 19 -53 38 -53 41 0 4 28 19 63 34 34
16 105 48 157 72 52 25 113 53 135 63 74 34 195 90 273 126 42 20 100 47 127
59 71 33 186 86 285 132 47 22 123 57 170 78 47 21 91 42 98 48 9 7 12 81 12
309 0 236 -3 299 -12 295 -16 -6 -1427 -659 -1659 -767 -255 -119 -203 -119
-424 -5 -537 274 -1097 494 -1670 655 -66 19 -122 35 -123 36 -2 2 25 40 60
86 422 547 696 1214 795 1936 25 179 27 226 28 512 0 371 -17 549 -86 875
-143 682 -440 1330 -885 1931 -287 388 -615 723 -1099 1122 -11 9 -78 59 -148
110 -197 144 -339 236 -627 407 -153 91 -610 314 -706 345 -22 7 -43 16 -49
20 -10 7 -230 91 -350 133 -475 168 -1050 292 -1578 342 -151 14 -721 27 -867
19z m914 -643 c1116 -135 2104 -524 2951 -1161 967 -728 1619 -1702 1840
-2748 59 -276 70 -392 69 -747 0 -264 -3 -353 -17 -445 -114 -747 -383 -1320
-885 -1884 -236 -266 -622 -572 -971 -771 -894 -507 -2026 -722 -3141 -595
-949 108 -1845 431 -2649 954 -302 196 -581 424 -861 705 -233 233 -405 434
-553 646 -439 626 -687 1255 -774 1960 -21 174 -24 571 -5 730 86 718 326
1292 771 1845 151 187 425 449 646 617 647 490 1470 801 2375 898 80 8 161 17
180 19 19 2 217 3 440 1 343 -2 432 -5 584 -24z m-14149 -1775 c824 -84 1533
-312 2225 -714 577 -336 1129 -835 1517 -1374 474 -658 773 -1381 897 -2173
44 -282 51 -382 51 -765 0 -396 -11 -545 -66 -865 -142 -837 -495 -1656 -1015
-2350 -278 -373 -676 -778 -1049 -1071 -1138 -892 -2620 -1339 -4012 -1209
-697 65 -1308 232 -1898 519 -540 263 -966 566 -1385 986 -485 486 -840 1021
-1097 1655 -184 452 -289 887 -345 1425 -20 192 -17 735 5 940 75 698 252
1298 562 1910 268 528 611 998 1039 1426 957 954 2259 1559 3581 1663 77 6
156 13 175 15 84 9 676 -4 815 -18z m9830 -7176 c447 -30 768 -137 1185 -395
302 -187 496 -338 579 -450 118 -159 121 -358 9 -565 -204 -378 -487 -698
-802 -910 -121 -81 -339 -190 -353 -176 -10 10 181 623 332 1065 82 238 87
258 83 321 -6 115 -68 182 -200 217 -57 15 -75 16 -125 5 -73 -15 -139 -56
-175 -107 -36 -52 -210 -555 -356 -1032 -26 -84 -50 -152 -53 -150 -3 1 -43
45 -89 97 -238 273 -495 522 -688 667 -397 298 -667 315 -793 50 -53 -113 -48
-210 16 -284 43 -50 136 -93 207 -96 49 -2 64 -10 215 -110 318 -214 549 -433
789 -749 70 -92 85 -118 66 -118 -5 0 -53 -7 -108 -15 -239 -36 -422 -49 -669
-49 -303 -1 -530 23 -830 84 -313 64 -565 146 -671 216 -62 42 -71 45 -111 39
-60 -9 -143 10 -197 46 -116 78 -144 283 -53 403 l26 33 -15 94 c-15 93 -35
348 -37 464 0 46 9 90 42 185 144 422 405 776 776 1050 75 56 113 70 184 70
52 0 66 -5 116 -38 l57 -39 78 23 c393 114 1111 185 1565 154z m6551 -3887
c25 -79 26 -91 21 -245 -7 -255 -60 -410 -181 -532 -87 -89 -155 -119 -266
-119 -151 1 -269 65 -406 221 -94 107 -198 255 -192 272 2 6 96 62 208 124
318 173 367 201 625 349 128 74 117 71 143 40 12 -16 34 -65 48 -110z m-2371
-1104 c44 -84 78 -392 74 -654 -4 -188 -4 -191 -34 -249 -39 -78 -110 -155
-177 -191 -47 -27 -62 -30 -138 -30 -82 0 -89 2 -193 52 -202 97 -365 211
-507 354 -73 74 -200 226 -200 241 0 3 28 17 63 31 34 14 149 62 254 106 189
79 645 279 773 340 36 17 66 31 67 31 1 0 10 -14 18 -31z m4750 -423 c19 -8
35 -19 35 -24 0 -26 -369 -612 -386 -612 -20 0 -75 71 -102 130 -34 74 -42
201 -17 286 33 114 127 207 235 231 66 15 186 9 235 -11z m-16253 -1346 c95
-11 211 -25 258 -30 101 -12 310 -34 468 -51 126 -13 119 -6 101 -103 -30
-164 -149 -347 -294 -453 -146 -107 -286 -117 -415 -32 -140 94 -276 355 -314
607 -12 77 -12 82 5 82 10 0 96 -9 191 -20z m1458 -145 c118 -9 251 -19 295
-23 l80 -7 -3 -34 c-5 -59 -51 -147 -103 -196 -74 -69 -125 -88 -239 -89 -82
-1 -102 2 -150 25 -79 37 -125 81 -162 156 -23 48 -33 84 -36 130 l-4 65 53
-6 c30 -3 151 -13 269 -21z m12220 -950 c153 -18 206 -28 336 -66 104 -30 309
-110 327 -128 7 -7 -36 -58 -131 -158 -271 -285 -768 -763 -793 -763 -16 0
-130 120 -180 190 -157 220 -237 546 -180 729 34 109 97 166 216 195 79 19
250 19 405 1z m-1054 -1135 c105 -27 219 -83 325 -159 98 -70 134 -105 125
-120 -29 -46 -608 -486 -935 -709 l-135 -92 -34 32 c-81 77 -160 339 -150 496
6 82 46 216 81 267 82 121 154 188 260 242 126 63 314 81 463 43z m-11722
-1590 c70 -11 170 -56 227 -102 134 -107 243 -369 268 -647 10 -108 5 -278 -8
-300 -11 -17 -382 68 -718 164 -180 52 -454 143 -467 156 -12 11 101 262 171
381 127 212 246 320 384 347 61 12 76 12 143 1z m1490 -696 c209 -54 346 -242
346 -476 0 -92 18 -85 -175 -63 -71 8 -175 20 -230 26 -112 12 -416 54 -512
70 l-62 11 5 31 c36 205 169 358 349 403 71 18 206 17 279 -2z"/>
<path d="M24844 22412 c-176 -227 -274 -366 -274 -389 0 -25 -2 -25 -42 -19
-23 4 -85 24 -138 46 -52 21 -151 62 -219 90 -153 62 -291 107 -358 115 -88
12 -259 -47 -305 -104 -24 -31 -20 -55 28 -194 35 -104 74 -179 124 -242 16
-21 30 -42 30 -48 0 -5 -38 -79 -85 -164 -47 -85 -85 -156 -85 -159 0 -2 92
-4 204 -4 113 0 207 -3 209 -7 2 -5 1 -64 -4 -133 -9 -154 1 -232 41 -317 104
-224 310 -381 450 -343 53 14 84 57 111 155 27 102 41 128 83 160 l35 26 74
-49 c130 -88 201 -119 320 -138 59 -9 110 -15 113 -12 10 11 44 152 44 186 0
19 -14 73 -31 120 -57 157 -42 300 39 385 44 47 109 88 196 123 84 34 105 55
109 110 2 23 -7 30 -93 68 -176 79 -325 157 -357 189 -41 39 -58 88 -71 202
-8 68 -22 122 -61 221 -28 72 -51 136 -51 142 0 19 -13 13 -36 -16z"/>
<path d="M5133 21539 c-46 -22 -68 -52 -102 -140 -12 -30 -36 -73 -53 -94 -63
-75 -134 -83 -289 -29 -131 44 -230 54 -314 29 -102 -29 -180 -71 -235 -123
l-52 -51 4 -60 c9 -129 123 -285 343 -469 50 -42 94 -79 99 -83 11 -10 -27
-71 -84 -134 -102 -113 -137 -198 -127 -311 6 -78 51 -177 105 -231 67 -67
125 -85 301 -94 175 -8 193 -13 398 -105 101 -46 141 -59 191 -62 61 -4 63 -3
96 32 25 26 39 55 53 108 17 66 23 77 81 132 57 55 112 143 135 217 4 12 29
19 106 27 56 7 117 12 136 12 18 0 37 5 40 10 3 6 -52 106 -124 223 -71 116
-132 219 -136 228 -4 11 12 25 63 53 82 45 148 106 264 245 l87 105 -77 49
c-150 97 -194 116 -315 141 -63 13 -137 34 -164 46 -73 32 -139 102 -185 197
-43 90 -78 127 -136 143 -51 14 -61 13 -109 -11z"/>
<path d="M26839 15776 c-45 -31 -69 -87 -69 -162 0 -91 42 -144 142 -182 695
-262 1039 -452 1313 -727 365 -365 566 -858 566 -1385 0 -85 -5 -188 -10 -228
-13 -83 -8 -110 25 -169 46 -80 177 -118 251 -73 50 30 65 71 79 215 60 612
-97 1190 -454 1667 -67 89 -208 240 -302 324 -276 245 -732 487 -1354 718 -88
33 -140 34 -187 2z"/>
<path d="M30485 14823 c-317 -7 -893 -33 -925 -43 -75 -21 -140 -91 -166 -178
-39 -129 12 -268 119 -325 39 -20 53 -21 232 -19 205 2 707 18 873 28 l102 6
0 269 0 269 -52 -2 c-29 -1 -111 -4 -183 -5z"/>
<path d="M0 12052 l0 -271 42 -5 c24 -3 207 -7 408 -10 201 -2 520 -12 710
-22 190 -9 366 -14 393 -10 59 9 123 56 157 116 22 39 25 58 25 135 0 81 -3
95 -30 145 -34 61 -97 114 -153 129 -61 16 -584 40 -1289 57 l-263 7 0 -271z"/>
<path d="M8014 11279 c-17 -5 -91 -43 -165 -85 -74 -42 -159 -90 -189 -107
-30 -16 -136 -75 -235 -130 -723 -401 -1112 -706 -1380 -1080 -344 -480 -406
-1048 -179 -1625 80 -203 233 -477 317 -571 48 -52 130 -73 198 -50 82 28 129
87 129 162 0 39 -10 60 -82 168 -351 531 -421 1052 -203 1504 94 194 227 363
424 538 285 253 496 387 1336 850 178 98 212 122 235 166 26 51 25 100 -1 156
-25 54 -66 91 -117 105 -42 11 -46 11 -88 -1z"/>
<path d="M2495 10136 c-27 -7 -140 -37 -250 -65 -251 -66 -370 -97 -465 -122
-41 -11 -133 -36 -205 -54 -71 -18 -364 -95 -650 -170 -286 -75 -608 -159
-715 -186 -107 -28 -198 -53 -202 -55 -4 -3 -8 -130 -8 -284 l0 -278 203 53
c111 29 272 71 357 93 85 23 371 97 635 166 264 69 566 148 670 176 105 28
336 89 515 136 335 87 373 102 416 162 31 41 44 89 44 158 0 116 -55 212 -149
259 -45 23 -134 28 -196 11z"/>
</g>
</svg>
